                                                                        S      1
,,10HSqiud case,10HSqiud case,7Hunknown,7Hunknown,32,38,7,99,15,,1.,2,2HG      1
MM,1,0.08,15H20250703.005415,0.01,10000.,7Hunknown,7Hunknown,11,0,15H202G      2
50702.192331;                                                           G      3
     186       1                                                00000000D      1
     186            -127       1       0                               0D      2
     186       2                                                00000000D      3
     186            -127       1       0                               0D      4
     514       3                                                00010000D      5
     514                       1       1                               0D      6
     514       4                                                00010000D      7
     514                       1       1                               0D      8
     510       5                                                00010000D      9
     510            -127       1       1                               0D     10
     510       6                                                00010000D     11
     510            -127       1       1                               0D     12
     510       7                                                00010000D     13
     510            -127       1       1                               0D     14
     510       8                                                00010000D     15
     510            -127       1       1                               0D     16
     510       9                                                00010000D     17
     510            -127       1       1                               0D     18
     510      10                                                00010000D     19
     510            -127       1       1                               0D     20
     510      11                                                00010000D     21
     510            -127       1       1                               0D     22
     510      12                                                00010000D     23
     510            -127       1       1                               0D     24
     510      13                                                00010000D     25
     510            -127       1       1                               0D     26
     510      14                                                00010000D     27
     510            -127       1       1                               0D     28
     508      15                                                00010000D     29
     508                       2       1                               0D     30
     508      17                                                00010000D     31
     508                       2       1                               0D     32
     508      19                                                00010000D     33
     508                       2       1                               0D     34
     508      21                                                00010000D     35
     508                       1       1                               0D     36
     508      22                                                00010000D     37
     508                       1       1                               0D     38
     508      23                                                00010000D     39
     508                       2       1                               0D     40
     508      25                                                00010000D     41
     508                       2       1                               0D     42
     508      27                                                00010000D     43
     508                       1       1                               0D     44
     508      28                                                00010000D     45
     508                       2       1                               0D     46
     508      30                                                00010000D     47
     508                       1       1                               0D     48
     508      31                                                00010000D     49
     508                       1       1                               0D     50
     508      32                                                00010000D     51
     508                       1       1                               0D     52
     126      33                                                00010000D     53
     126       0              11       0                               0D     54
     126      44                                                00010000D     55
     126       0               4       0                               0D     56
     126      48                                                00010000D     57
     126       0               8       0                               0D     58
     126      56                                                00010000D     59
     126       0               8       0                               0D     60
     126      64                                                00010000D     61
     126       0               6       0                               0D     62
     126      70                                                00010000D     63
     126       0               7       0                               0D     64
     126      77                                                00010000D     65
     126       0               4       0                               0D     66
     126      81                                                00010000D     67
     126       0               6       0                               0D     68
     126      87                                                00010000D     69
     126       0               7       0                               0D     70
     126      94                                                00010000D     71
     126       0               4       0                               0D     72
     126      98                                                00010000D     73
     126       0               7       0                               0D     74
     126     105                                                00010000D     75
     126       0               7       0                               0D     76
     126     112                                                00010000D     77
     126       0               4       0                               0D     78
     126     116                                                00010000D     79
     126       0              10       0                               0D     80
     126     126                                                00010000D     81
     126       0               4       0                               0D     82
     126     130                                                00010000D     83
     126       0               7       0                               0D     84
     126     137                                                00010000D     85
     126       0               6       0                               0D     86
     126     143                                                00010000D     87
     126       0              12       0                               0D     88
     126     155                                                00010000D     89
     126       0               5       0                               0D     90
     126     160                                                00010000D     91
     126       0               6       0                               0D     92
     126     166                                                00010000D     93
     126       0               7       0                               0D     94
     128     173                                                00010000D     95
     128       0    -127      21       0                               0D     96
     128     194                                                00010000D     97
     128       0    -127      19       0                               0D     98
     128     213                                                00010000D     99
     128       0    -127      16       0                               0D    100
     128     229                                                00010000D    101
     128       0    -127       4       0                               0D    102
     128     233                                                00010000D    103
     128       0    -127      23       0                               0D    104
     128     256                                                00010000D    105
     128       0    -127      17       0                               0D    106
     128     273                                                00010000D    107
     128       0    -127       3       0                               0D    108
     128     276                                                00010000D    109
     128       0    -127      21       0                               0D    110
     128     297                                                00010000D    111
     128       0    -127       4       0                               0D    112
     128     301                                                00010000D    113
     128       0    -127       7       0                               0D    114
     502     308                                                00010000D    115
     502                       5       1                               0D    116
     502     313                                                00010000D    117
     502                       4       1                               0D    118
     504     317                                                00010001D    119
     504                       4       1                               0D    120
     504     321                                                00010001D    121
     504                       2       1                               0D    122
     406     323                                                00000000D    123
     406                       1      15                               0D    124
     406     324                                                00000000D    125
     406                       1      15                               0D    126
     314     325                                                00000200D    127
     314                       2       0                               0D    128
186,5,1,0,0,1,123;                                                     1P      1
186,7,1,0,0,1,125;                                                     3P      2
514,5,9,1,11,1,13,1,15,1,17,1;                                         5P      3
514,5,19,1,21,1,23,1,25,1,27,1;                                        7P      4
510,95,1,1,29;                                                         9P      5
510,97,1,1,31;                                                        11P      6
510,99,1,1,33;                                                        13P      7
510,101,2,1,35,37;                                                    15P      8
510,103,1,1,39;                                                       17P      9
510,105,1,1,41;                                                       19P     10
510,107,1,1,43;                                                       21P     11
510,109,1,1,45;                                                       23P     12
510,111,2,1,47,49;                                                    25P     13
510,113,1,1,51;                                                       27P     14
508,5,0,119,1,0,0,0,119,2,1,0,0,119,3,0,0,0,119,4,0,0,0,119,2,0,      29P     15
0;                                                                    29P     16
508,6,0,119,5,0,0,0,119,6,0,0,0,119,7,1,0,0,119,3,1,0,0,119,4,1,      31P     17
0,0,119,7,0,0;                                                        31P     18
508,6,0,119,8,0,0,0,119,9,0,0,0,119,10,1,0,0,119,6,1,0,0,119,5,       33P     19
1,0,0,119,10,0,0;                                                     33P     20
508,2,0,119,11,0,0,0,119,12,0,0;                                      35P     21
508,2,0,119,8,1,0,0,119,9,1,0;                                        37P     22
508,5,0,119,1,1,0,0,119,13,1,0,0,119,12,1,0,0,119,11,1,0,0,119,       39P     23
13,0,0;                                                               39P     24
508,5,0,121,1,0,0,0,121,2,1,0,0,121,3,1,0,0,121,4,1,0,0,121,2,0,      41P     25
0;                                                                    41P     26
508,2,0,121,4,0,0,0,121,3,0,0;                                        43P     27
508,5,0,121,5,0,0,0,121,6,1,0,0,121,7,0,0,0,121,8,0,0,0,121,6,0,      45P     28
0;                                                                    45P     29
508,2,0,121,7,1,0,0,121,8,1,0;                                        47P     30
508,1,0,121,1,1,0;                                                    49P     31
508,1,0,121,5,1,0;                                                    51P     32
126,8,2,0,1,0,0,-3.14159265358979,-3.14159265358979,                  53P     33
-3.14159265358979,-1.5707963267949,-1.5707963267949,0.,0.,            53P     34
1.5707963267949,1.5707963267949,3.14159265358979,                     53P     35
3.14159265358979,3.14159265358979,1.,0.707106781186547,1.,            53P     36
0.707106781186547,1.,0.707106781186547,1.,0.707106781186547,1.,       53P     37
-35.,4.28626379701574D-15,13.4095976006888,-35.,35.,                  53P     38
13.4095976006888,2.14313189850787D-15,35.,13.4095976006888,35.,       53P     39
35.,13.4095976006888,35.,0.,13.4095976006888,35.,-35.,                53P     40
13.4095976006888,2.14313189850787D-15,-35.,13.4095976006888,          53P     41
-35.,-35.,13.4095976006888,-35.,-4.28626379701574D-15,                53P     42
13.4095976006888,-3.14159265358979,3.14159265358979,0.,0.,0.;         53P     43
126,1,1,0,0,1,0,-0.240274217162536,-0.240274217162536,                55P     44
-0.201247455511672,-0.201247455511672,1.,1.,-35.,                     55P     45
4.67426784666297D-63,13.4095976006888,-35.,4.67426784666297D-63,      55P     46
12.0436609429085,-0.240274217162536,-0.201247455511672,0.,0.,0.;      55P     47
126,4,2,0,0,0,0,2.04562249034488D-65,2.04562249034488D-65,            57P     48
2.04562249034488D-65,1.5707963267949,1.5707963267949,                 57P     49
3.14159265358979,3.14159265358979,3.14159265358979,1.,                57P     50
0.707106781186547,1.,0.707106781186547,1.,35.,                        57P     51
5.39023571828368D-63,12.0436609429085,35.,35.,12.0436609429085,       57P     52
8.70651667218568D-16,35.,12.0436609429085,-35.,35.,                   57P     53
12.0436609429085,-35.,4.28626379701574D-15,12.0436609429085,          57P     54
2.04562249034488D-65,3.14159265358979,0.,0.,0.;                       57P     55
126,4,2,0,0,0,0,-3.14159265358979,-3.14159265358979,                  59P     56
-3.14159265358979,-1.5707963267949,-1.5707963267949,                  59P     57
2.04562249034488D-65,2.04562249034488D-65,2.04562249034488D-65,       59P     58
1.,0.707106781186547,1.,0.707106781186547,1.,-35.,                    59P     59
-4.28626379701574D-15,12.0436609429085,-35.,-35.,                     59P     60
12.0436609429085,8.70651667218568D-16,-35.,12.0436609429085,35.,      59P     61
-35.,12.0436609429085,35.,5.39023571828368D-63,12.0436609429085,      59P     62
-3.14159265358979,2.04562249034488D-65,0.,0.,0.;                      59P     63
126,4,2,0,0,0,0,0.,0.,0.,1.5707963267949,1.5707963267949,             61P     64
3.14159265358979,3.14159265358979,3.14159265358979,1.,                61P     65
0.707106781186548,1.,0.707106781186548,1.,-36.,                       61P     66
5.39023571828368D-63,12.,-36.,-36.,12.,-3.6717530613805D-15,          61P     67
-36.,12.,36.,-36.,12.,36.,-4.40872847693047D-15,12.,0.,               61P     68
3.14159265358979,0.,0.,0.;                                            61P     69
126,4,2,0,0,0,0,3.14159265358979,3.14159265358979,                    63P     70
3.14159265358979,4.71238898038469,4.71238898038469,                   63P     71
6.28318530717959,6.28318530717959,6.28318530717959,1.,                63P     72
0.707106781186548,1.,0.707106781186548,1.,36.,                        63P     73
-4.40872847693047D-15,12.,36.,36.,12.,5.14570389248044D-15,36.,       63P     74
12.,-36.,36.,12.,-36.,8.81745695386094D-15,12.,3.14159265358979,      63P     75
6.28318530717959,0.,0.,0.;                                            63P     76
126,1,1,0,0,1,0,-1.00095268516332,-1.00095268516332,                  65P     77
-0.945344202654246,-0.945344202654246,1.,1.,36.,                      65P     78
5.39023571828368D-63,12.,35.,5.39023571828368D-63,                    65P     79
12.0436609429085,-1.00095268516332,-0.945344202654246,0.,0.,0.;       65P     80
126,4,2,0,0,0,0,0.,0.,0.,1.5707963267949,1.5707963267949,             67P     81
3.14159265358979,3.14159265358979,3.14159265358979,1.,                67P     82
0.707106781186548,1.,0.707106781186548,1.,-36.,                       67P     83
5.39023571828368D-63,9.,-36.,-36.,9.,-3.6717530613805D-15,-36.,       67P     84
9.,36.,-36.,9.,36.,-4.40872847693047D-15,9.,0.,3.14159265358979,      67P     85
0.,0.,0.;                                                             67P     86
126,4,2,0,0,0,0,3.14159265358979,3.14159265358979,                    69P     87
3.14159265358979,4.71238898038469,4.71238898038469,                   69P     88
6.28318530717959,6.28318530717959,6.28318530717959,1.,                69P     89
0.707106781186548,1.,0.707106781186548,1.,36.,                        69P     90
-4.40872847693047D-15,9.,36.,36.,9.,5.14570389248044D-15,36.,9.,      69P     91
-36.,36.,9.,-36.,8.81745695386094D-15,9.,3.14159265358979,            69P     92
6.28318530717959,0.,0.,0.;                                            69P     93
126,1,1,0,0,1,0,-0.0416666666666666,-0.0416666666666666,              71P     94
0.0416666666666667,0.0416666666666667,1.,1.,36.,                      71P     95
5.39023571828368D-63,9.,36.,5.39023571828368D-63,12.,                 71P     96
-0.0416666666666666,0.0416666666666667,0.,0.,0.;                      71P     97
126,4,2,0,0,0,0,-3.14159265358979,-3.14159265358979,                  73P     98
-3.14159265358979,-1.5707963267949,-1.5707963267949,                  73P     99
1.22464679914735D-16,1.22464679914735D-16,1.22464679914735D-16,       73P    100
1.,0.707106781186548,1.,0.707106781186548,1.,37.643,0.,9.,            73P    101
37.643,37.643,9.,2.30496897301519D-15,37.643,9.,-37.643,37.643,       73P    102
9.,-37.643,0.,9.,-3.14159265358979,1.22464679914735D-16,0.,0.,        73P    103
0.;                                                                   73P    104
126,4,2,0,0,0,0,1.22464679914735D-16,1.22464679914735D-16,            75P    105
1.22464679914735D-16,1.5707963267949,1.5707963267949,                 75P    106
3.14159265358979,3.14159265358979,3.14159265358979,1.,                75P    107
0.707106781186548,1.,0.707106781186548,1.,-37.643,0.,9.,-37.643,      75P    108
-37.643,9.,-6.91490691904557D-15,-37.643,9.,37.643,-37.643,9.,        75P    109
37.643,-9.21987589206076D-15,9.,1.22464679914735D-16,                 75P    110
3.14159265358979,0.,0.,0.;                                            75P    111
126,2,2,0,0,0,0,-1.07991877459376,-1.07991877459376,                  77P    112
-1.07991877459376,0.,0.,0.,1.,0.857729561108864,1.,-35.,0.,           77P    113
13.4095976006888,-37.643,0.,11.9968720950719,-37.643,0.,9.,           77P    114
-1.07991877459376,0.,0.,0.,0.;                                        77P    115
126,8,2,0,1,0,0,-3.14159265358979,-3.14159265358979,                  79P    116
-3.14159265358979,-1.5707963267949,-1.5707963267949,0.,0.,            79P    117
1.5707963267949,1.5707963267949,3.14159265358979,                     79P    118
3.14159265358979,3.14159265358979,1.,0.707106781186547,1.,            79P    119
0.707106781186547,1.,0.707106781186547,1.,0.707106781186547,1.,       79P    120
-35.,4.28626379701574D-15,9.,-35.,35.,9.,8.70651667218568D-16,        79P    121
35.,9.,35.,35.,9.,35.,4.67426784666297D-63,9.,35.,-35.,9.,            79P    122
8.70651667218568D-16,-35.,9.,-35.,-35.,9.,-35.,                       79P    123
-4.28626379701574D-15,9.,-3.14159265358979,3.14159265358979,0.,       79P    124
0.,0.;                                                                79P    125
126,1,1,0,0,1,0,-0.114285714285714,-0.114285714285714,                81P    126
0.257142857142857,0.257142857142857,1.,1.,-35.,                       81P    127
4.67426784666297D-63,9.,-35.,4.67426784666297D-63,-4.,                81P    128
-0.114285714285714,0.257142857142857,0.,0.,0.;                        81P    129
126,4,2,0,0,0,0,3.14159265358979,3.14159265358979,                    83P    130
3.14159265358979,4.71238898038469,4.71238898038469,                   83P    131
6.28318530717959,6.28318530717959,6.28318530717959,1.,                83P    132
0.707106781186547,1.,0.707106781186548,1.,-35.,                       83P    133
-4.28626379701574D-15,-4.,-35.,35.,-4.,-7.7018759268129D-15,35.,      83P    134
-4.,35.,35.,-4.,35.,8.57252759403147D-15,-4.,3.14159265358979,        83P    135
6.28318530717959,0.,0.,0.;                                            83P    136
126,4,2,0,0,0,0,0.,0.,0.,1.5707963267949,1.5707963267949,             85P    137
3.14159265358979,3.14159265358979,3.14159265358979,1.,                85P    138
0.707106781186547,1.,0.707106781186547,1.,35.,                        85P    139
4.67426784666297D-63,-4.,35.,-35.,-4.,8.70651667218568D-16,-35.,      85P    140
-4.,-35.,-35.,-4.,-35.,-4.28626379701574D-15,-4.,0.,                  85P    141
3.14159265358979,0.,0.,0.;                                            85P    142
126,8,2,0,1,0,0,-3.14159265358979,-3.14159265358979,                  87P    143
-3.14159265358979,-1.5707963267949,-1.5707963267949,0.,0.,            87P    144
1.5707963267949,1.5707963267949,3.14159265358979,                     87P    145
3.14159265358979,3.14159265358979,1.,0.707106781186548,1.,            87P    146
0.707106781186548,1.,0.707106781186548,1.,0.707106781186548,1.,       87P    147
-6.07732676894565D-15,-37.643,-6.66235337438325,-37.643,-37.643,      87P    148
-6.66235337438325,-37.643,2.30496897301519D-15,                       87P    149
-6.66235337438325,-37.643,37.643,-6.66235337438325,                   87P    150
-1.46738882291527D-15,37.643,-6.66235337438325,37.643,37.643,         87P    151
-6.66235337438325,37.643,2.30496897301519D-15,-6.66235337438325,      87P    152
37.643,-37.643,-6.66235337438325,3.14254912311511D-15,-37.643,        87P    153
-6.66235337438325,-3.14159265358979,3.14159265358979,0.,0.,0.;        87P    154
126,1,1,0,0,1,0,-0.402793437674554,-0.402793437674554,                89P    155
0.0132826820391574,0.0132826820391574,1.,1.,                          89P    156
-1.46738882291527D-15,-37.643,-6.66235337438325,                      89P    157
-1.46738882291527D-15,-37.643,9.,-0.402793437674554,                  89P    158
0.0132826820391574,0.,0.,0.;                                          89P    159
126,4,2,0,0,0,0,0.,0.,0.,1.5707963267949,1.5707963267949,             91P    160
3.14159265358979,3.14159265358979,3.14159265358979,1.,                91P    161
0.707106781186548,1.,0.707106781186548,1.,-1.46738882291527D-15,      91P    162
37.643,9.,-37.643,37.643,9.,-37.643,2.30496897301519D-15,9.,          91P    163
-37.643,-37.643,9.,-6.07732676894565D-15,-37.643,9.,0.,               91P    164
3.14159265358979,0.,0.,0.;                                            91P    165
126,4,2,0,0,0,0,3.14159265358979,3.14159265358979,                    93P    166
3.14159265358979,4.71238898038469,4.71238898038469,                   93P    167
6.28318530717959,6.28318530717959,6.28318530717959,1.,                93P    168
0.707106781186548,1.,0.707106781186547,1.,-6.07732676894565D-15,      93P    169
-37.643,9.,37.643,-37.643,9.,37.643,-6.91490691904557D-15,9.,         93P    170
37.643,37.643,9.,7.7524870691455D-15,37.643,9.,3.14159265358979,      93P    171
6.28318530717959,0.,0.,0.;                                            93P    172
128,1,8,1,2,0,1,0,0,1,-0.240274217162536,-0.240274217162536,          95P    173
-0.201247455511672,-0.201247455511672,-3.14159265358979,              95P    174
-3.14159265358979,-3.14159265358979,-1.5707963267949,                 95P    175
-1.5707963267949,0.,0.,1.5707963267949,1.5707963267949,               95P    176
3.14159265358979,3.14159265358979,3.14159265358979,1.,1.,             95P    177
0.707106781186548,0.707106781186548,1.,1.,0.707106781186548,          95P    178
0.707106781186548,1.,1.,0.707106781186548,0.707106781186548,1.,       95P    179
1.,0.707106781186548,0.707106781186548,1.,1.,-35.,                    95P    180
4.67426784666297D-63,13.4095976006888,-35.,4.67426784666297D-63,      95P    181
12.0436609429085,-35.,35.,13.4095976006888,-35.,35.,                  95P    182
12.0436609429085,-1.2724802312893D-15,35.,13.4095976006888,           95P    183
-1.2724802312893D-15,35.,12.0436609429085,35.,35.,                    95P    184
13.4095976006888,35.,35.,12.0436609429085,35.,                        95P    185
4.67426784666297D-63,13.4095976006888,35.,4.67426784666297D-63,       95P    186
12.0436609429085,35.,-35.,13.4095976006888,35.,-35.,                  95P    187
12.0436609429085,-1.2724802312893D-15,-35.,13.4095976006888,          95P    188
-1.2724802312893D-15,-35.,12.0436609429085,-35.,-35.,                 95P    189
13.4095976006888,-35.,-35.,12.0436609429085,-35.,                     95P    190
4.67426784666297D-63,13.4095976006888,-35.,4.67426784666297D-63,      95P    191
12.0436609429085,-0.240274217162536,-0.201247455511672,               95P    192
-3.14159265358979,3.14159265358979;                                   95P    193
128,1,8,1,2,0,1,0,0,1,-1.00095268516332,-1.00095268516332,            97P    194
-0.945344202654246,-0.945344202654246,-3.14159265358979,              97P    195
-3.14159265358979,-3.14159265358979,-1.5707963267949,                 97P    196
-1.5707963267949,0.,0.,1.5707963267949,1.5707963267949,               97P    197
3.14159265358979,3.14159265358979,3.14159265358979,1.,1.,             97P    198
0.707106781186548,0.707106781186548,1.,1.,0.707106781186548,          97P    199
0.707106781186548,1.,1.,0.707106781186548,0.707106781186548,1.,       97P    200
1.,0.707106781186548,0.707106781186548,1.,1.,36.,                     97P    201
5.39023571828368D-63,12.,35.,5.39023571828368D-63,                    97P    202
12.0436609429085,36.,36.,12.,35.,35.,12.0436609429085,                97P    203
-1.46738882291527D-15,36.,12.,-1.46738882291527D-15,35.,              97P    204
12.0436609429085,-36.,36.,12.,-35.,35.,12.0436609429085,-36.,         97P    205
5.39023571828368D-63,12.,-35.,5.39023571828368D-63,                   97P    206
12.0436609429085,-36.,-36.,12.,-35.,-35.,12.0436609429085,            97P    207
-1.46738882291527D-15,-36.,12.,-1.46738882291527D-15,-35.,            97P    208
12.0436609429085,36.,-36.,12.,35.,-35.,12.0436609429085,36.,          97P    209
5.39023571828368D-63,12.,35.,5.39023571828368D-63,                    97P    210
12.0436609429085,-1.00095268516332,-0.945344202654246,                97P    211
-3.14159265358979,3.14159265358979;                                   97P    212
128,1,8,1,2,0,1,0,0,1,-0.0416666666666666,-0.0416666666666666,        99P    213
0.0416666666666667,0.0416666666666667,-3.14159265358979,              99P    214
-3.14159265358979,-3.14159265358979,-1.5707963267949,                 99P    215
-1.5707963267949,0.,0.,1.5707963267949,1.5707963267949,               99P    216
3.14159265358979,3.14159265358979,3.14159265358979,1.,1.,             99P    217
0.707106781186548,0.707106781186548,1.,1.,0.707106781186548,          99P    218
0.707106781186548,1.,1.,0.707106781186548,0.707106781186548,1.,       99P    219
1.,0.707106781186548,0.707106781186548,1.,1.,36.,                     99P    220
5.39023571828368D-63,9.,36.,5.39023571828368D-63,12.,36.,36.,9.,      99P    221
36.,36.,12.,-1.46738882291527D-15,36.,9.,-1.46738882291527D-15,       99P    222
36.,12.,-36.,36.,9.,-36.,36.,12.,-36.,5.39023571828368D-63,9.,        99P    223
-36.,5.39023571828368D-63,12.,-36.,-36.,9.,-36.,-36.,12.,             99P    224
-1.46738882291527D-15,-36.,9.,-1.46738882291527D-15,-36.,12.,         99P    225
36.,-36.,9.,36.,-36.,12.,36.,5.39023571828368D-63,9.,36.,             99P    226
5.39023571828368D-63,12.,-0.0416666666666666,0.0416666666666667,      99P    227
-3.14159265358979,3.14159265358979;                                   99P    228
128,1,1,1,1,0,0,1,0,0,-3.7653,-3.7653,3.7653,3.7653,-3.7653,         101P    229
-3.7653,3.7653,3.7653,1.,1.,1.,1.,37.653,-37.653,9.,-37.653,         101P    230
-37.653,9.,37.653,37.653,9.,-37.653,37.653,9.,-3.7653,3.7653,        101P    231
-3.7653,3.7653;                                                      101P    232
128,2,8,2,2,0,1,0,0,1,0.,0.,0.,1.07991877459376,                     103P    233
1.07991877459376,1.07991877459376,-3.14159265358979,                 103P    234
-3.14159265358979,-3.14159265358979,-1.5707963267949,                103P    235
-1.5707963267949,0.,0.,1.5707963267949,1.5707963267949,              103P    236
3.14159265358979,3.14159265358979,3.14159265358979,1.,               103P    237
0.857729561108864,1.,0.707106781186548,0.606506389084239,            103P    238
0.707106781186548,1.,0.857729561108864,1.,0.707106781186548,         103P    239
0.606506389084239,0.707106781186548,1.,0.857729561108864,1.,         103P    240
0.707106781186548,0.606506389084239,0.707106781186548,1.,            103P    241
0.857729561108864,1.,0.707106781186548,0.606506389084239,            103P    242
0.707106781186548,1.,0.857729561108864,1.,-35.,0.,                   103P    243
13.4095976006888,-37.643,0.,11.9968720950719,-37.643,0.,9.,-35.,     103P    244
-35.,13.4095976006888,-37.643,-37.643,11.9968720950719,-37.643,      103P    245
-37.643,9.,0.,-35.,13.4095976006888,0.,-37.643,11.9968720950719,     103P    246
0.,-37.643,9.,35.,-35.,13.4095976006888,37.643,-37.643,              103P    247
11.9968720950719,37.643,-37.643,9.,35.,0.,13.4095976006888,          103P    248
37.643,0.,11.9968720950719,37.643,0.,9.,35.,35.,                     103P    249
13.4095976006888,37.643,37.643,11.9968720950719,37.643,37.643,       103P    250
9.,0.,35.,13.4095976006888,0.,37.643,11.9968720950719,0.,37.643,     103P    251
9.,-35.,35.,13.4095976006888,-37.643,37.643,11.9968720950719,        103P    252
-37.643,37.643,9.,-35.,0.,13.4095976006888,-37.643,0.,               103P    253
11.9968720950719,-37.643,0.,9.,0.,1.07991877459376,                  103P    254
-3.14159265358979,3.14159265358979;                                  103P    255
128,1,8,1,2,0,1,0,0,1,-0.114285714285714,-0.114285714285714,         105P    256
0.257142857142857,0.257142857142857,-3.14159265358979,               105P    257
-3.14159265358979,-3.14159265358979,-1.5707963267949,                105P    258
-1.5707963267949,0.,0.,1.5707963267949,1.5707963267949,              105P    259
3.14159265358979,3.14159265358979,3.14159265358979,1.,1.,            105P    260
0.707106781186548,0.707106781186548,1.,1.,0.707106781186548,         105P    261
0.707106781186548,1.,1.,0.707106781186548,0.707106781186548,1.,      105P    262
1.,0.707106781186548,0.707106781186548,1.,1.,-35.,                   105P    263
4.67426784666297D-63,9.,-35.,4.67426784666297D-63,-4.,-35.,35.,      105P    264
9.,-35.,35.,-4.,-1.2724802312893D-15,35.,9.,                         105P    265
-1.2724802312893D-15,35.,-4.,35.,35.,9.,35.,35.,-4.,35.,             105P    266
4.67426784666297D-63,9.,35.,4.67426784666297D-63,-4.,35.,-35.,       105P    267
9.,35.,-35.,-4.,-1.2724802312893D-15,-35.,9.,                        105P    268
-1.2724802312893D-15,-35.,-4.,-35.,-35.,9.,-35.,-35.,-4.,-35.,       105P    269
4.67426784666297D-63,9.,-35.,4.67426784666297D-63,-4.,               105P    270
-0.114285714285714,0.257142857142857,-3.14159265358979,              105P    271
3.14159265358979;                                                    105P    272
128,1,1,1,1,0,0,1,0,0,-3.501,-3.501,3.501,3.501,-3.501,-3.501,       107P    273
3.501,3.501,1.,1.,1.,1.,35.01,35.01,-4.,-35.01,35.01,-4.,35.01,      107P    274
-35.01,-4.,-35.01,-35.01,-4.,-3.501,3.501,-3.501,3.501;              107P    275
128,1,8,1,2,0,1,0,0,1,-0.0132826820391574,-0.0132826820391574,       109P    276
0.402793437674554,0.402793437674554,-3.14159265358979,               109P    277
-3.14159265358979,-3.14159265358979,-1.5707963267949,                109P    278
-1.5707963267949,0.,0.,1.5707963267949,1.5707963267949,              109P    279
3.14159265358979,3.14159265358979,3.14159265358979,1.,1.,            109P    280
0.707106781186548,0.707106781186548,1.,1.,0.707106781186548,         109P    281
0.707106781186548,1.,1.,0.707106781186548,0.707106781186548,1.,      109P    282
1.,0.707106781186548,0.707106781186548,1.,1.,                        109P    283
-1.46738882291527D-15,-37.643,-6.66235337438325,                     109P    284
-1.46738882291527D-15,-37.643,9.,-37.643,-37.643,                    109P    285
-6.66235337438325,-37.643,-37.643,9.,-37.643,                        109P    286
5.39023571828368D-63,-6.66235337438325,-37.643,                      109P    287
5.39023571828368D-63,9.,-37.643,37.643,-6.66235337438325,            109P    288
-37.643,37.643,9.,-1.46738882291527D-15,37.643,                      109P    289
-6.66235337438325,-1.46738882291527D-15,37.643,9.,37.643,37.643,     109P    290
-6.66235337438325,37.643,37.643,9.,37.643,5.39023571828368D-63,      109P    291
-6.66235337438325,37.643,5.39023571828368D-63,9.,37.643,-37.643,     109P    292
-6.66235337438325,37.643,-37.643,9.,-1.46738882291527D-15,           109P    293
-37.643,-6.66235337438325,-1.46738882291527D-15,-37.643,9.,          109P    294
-0.0132826820391574,0.402793437674554,-3.14159265358979,             109P    295
3.14159265358979;                                                    109P    296
128,1,1,1,1,0,0,1,0,0,-3.7653,-3.7653,3.7653,3.7653,-3.7653,         111P    297
-3.7653,3.7653,3.7653,1.,1.,1.,1.,-37.653,37.653,9.,-37.653,         111P    298
-37.653,9.,37.653,37.653,9.,37.653,-37.653,9.,-3.7653,3.7653,        111P    299
-3.7653,3.7653;                                                      111P    300
128,1,1,1,1,0,0,1,0,0,-3.78755157342114,-3.78755157342114,           113P    301
3.74304842657886,3.74304842657886,-3.83388816121878,                 113P    302
-3.83388816121878,3.69671183878122,3.69671183878122,1.,1.,1.,1.,     113P    303
-37.653,-37.653,-6.66235337438325,-37.653,37.653,                    113P    304
-6.66235337438325,37.653,-37.653,-6.66235337438325,37.653,           113P    305
37.653,-6.66235337438325,-3.78755157342114,3.74304842657886,         113P    306
-3.83388816121878,3.69671183878122;                                  113P    307
502,9,-35.,4.28626379701574D-15,13.4095976006888,-35.,               115P    308
-4.28626379701574D-15,12.0436609429085,35.,5.39023571828368D-63,     115P    309
12.0436609429085,-36.,5.39023571828368D-63,12.,36.,                  115P    310
5.39023571828368D-63,12.,-36.,5.39023571828368D-63,9.,36.,           115P    311
5.39023571828368D-63,9.,37.643,0.,9.,-37.643,0.,9.;                  115P    312
502,6,-35.,4.28626379701574D-15,9.,-35.,4.67426784666297D-63,        117P    313
-4.,35.,4.67426784666297D-63,-4.,-6.07732676894565D-15,-37.643,      117P    314
-6.66235337438325,-1.46738882291527D-15,-37.643,9.,                  117P    315
-1.46738882291527D-15,37.643,9.;                                     117P    316
504,13,53,115,1,115,1,55,115,1,115,2,57,115,3,115,2,59,115,2,        119P    317
115,3,61,115,4,115,5,63,115,5,115,4,65,115,5,115,3,67,115,6,115,     119P    318
7,69,115,7,115,6,71,115,7,115,5,73,115,8,115,9,75,115,9,115,8,       119P    319
77,115,1,115,9;                                                      119P    320
504,8,79,117,1,117,1,81,117,1,117,2,83,117,2,117,3,85,117,3,117,     121P    321
2,87,117,4,117,4,89,117,4,117,5,91,117,6,117,5,93,117,5,117,6;       121P    322
406,1,5HBody1;                                                       123P    323
406,1,5HBody6;                                                       125P    324
314,96.078431372549,64.3137254901961,27.843137254902,17HNylon 6-     127P    325
6 (White);                                                           127P    326
S      1G      3D    128P    326                                        T      1
